# xmcd
#
# Track frame offsets: 
#        150
#        23252
#        42754
#        65851
#        83278
#        97701
#        113502
#        133305
#        172115
#        185426
#        200688
#        227214
#        250948
#        280049
#
# Disc length: 4021 seconds
#
# Revision: 1
# Processed by: cddbd v1.5.2PL0 Copyright (c) Steve Scherf et al.
# Submitted via: ExactAudioCopy v0.99pb3
#
DISCID=b30fb30e
DTITLE=Blur - All the people... Blur- Live in Hyde Park 02,07,2009 - D
DTITLE=isc 02
DYEAR=2009
DGENRE=BritPop
TTITLE0=Country House
TTITLE1=Oily Water
TTITLE2=Chemical World
TTITLE3=Sunday Sunday
TTITLE4=Parklife
TTITLE5=End Of A Century
TTITLE6=To The End
TTITLE7=This Is A Low
TTITLE8=Popscene
TTITLE9=Advert
TTITLE10=Song 2
TTITLE11=Death Of A Party
TTITLE12=For Tomorrow
TTITLE13=The Universal
EXTD=
EXTT0=
EXTT1=
EXTT2=
EXTT3=
EXTT4=
EXTT5=
EXTT6=
EXTT7=
EXTT8=
EXTT9=
EXTT10=
EXTT11=
EXTT12=
EXTT13=
PLAYORDER=
